<svg xmlns="http://www.w3.org/2000/svg" width="1020" height="170" viewBox="0 0 1020 170" role="img" aria-labelledby="title desc">
  <title id="title">Idea to research to paper flow chart</title>
  <desc id="desc">Three rounded boxes labelled idea, research, and write paper, connected by arrows.</desc>

  <defs>
    <!-- ColorBrewer Set2-inspired colours: colour-blind friendly and works on dark slides -->
    <marker id="arrowhead" viewBox="0 0 10 10" refX="9" refY="5" markerWidth="8" markerHeight="8" orient="auto-start-reverse">
      <path d="M 0 0 L 10 5 L 0 10 z" fill="#000000"/>
    </marker>
    <style>
      .box { fill: none; stroke-width: 3.2; rx: 16; ry: 16; }
      .label { font-family: system-ui, -apple-system, BlinkMacSystemFont, 'Segoe UI', sans-serif; font-size: 30px; font-weight: 700; dominant-baseline: middle; }
      .arrow { stroke: #000000; stroke-width: 4; stroke-linecap: round; marker-end: url(#arrowhead); }
      .icon { fill: none; stroke-width: 3; stroke-linecap: round; stroke-linejoin: round; }
    </style>
  </defs>

  <!-- Move each group independently if needed -->
  <g id="idea-step" transform="translate(30,45)">
    <rect class="box" x="0" y="0" width="190" height="80" rx="16" ry="16" stroke="#66c2a5"/>
    <g class="icon" stroke="#66c2a5" transform="translate(25,20)">
      <path d="M25 42 v-7 c0-8 12-12 12-27 a19 19 0 0 0-38 0 c0 15 12 19 12 27 v7"/>
      <path d="M10 42 h28 M13 50 h22 M17 58 h14"/>
      <path d="M18 -11 v-9 M-5 -1 l-7 -7 M42 -1 l7 -7 M-11 19 h-10 M58 19 h10"/>
    </g>
    <text class="label" x="92" y="41" fill="#66c2a5">idea</text>
  </g>

  <line id="arrow-1" class="arrow" x1="245" y1="85" x2="335" y2="85"/>

  <g id="write-paper-step" transform="translate(355,45)">
    <rect class="box" x="0" y="0" width="250" height="80" rx="16" ry="16" stroke="#8da0cb"/>
    <g class="icon" stroke="#8da0cb" transform="translate(20,20)">
      <path d="M0 0 h32 v45 h-32 z"/>
      <path d="M9 13 h14 M9 24 h18"/>
      <path d="M43 13 l12 12 -24 24 -14 2 2-14 z"/>
      <path d="M37 19 l12 12"/>
    </g>
    <text class="label" x="82" y="41" fill="#8da0cb">write paper</text>
  </g>

  <line id="arrow-2" class="arrow" x1="615" y1="85" x2="705" y2="85"/>

  <g id="research-step" transform="translate(725,45)">
    <rect class="box" x="0" y="0" width="235" height="80" rx="16" ry="16" stroke="#fc8d62"/>
    <g class="icon" stroke="#fc8d62" transform="translate(25,18)">
      <path d="M0 0 h32 l18 18 v42 h-50 z"/>
      <path d="M32 0 v18 h18"/>
      <circle cx="38" cy="43" r="16"/>
      <path d="M50 55 l15 15 M10 25 h18 M10 38 h13 M10 51 h10"/>
    </g>
    <text class="label" x="100" y="41" fill="#fc8d62">research</text>
  </g>
</svg>
